<?xml version="1.0" encoding="UTF-8"?>
<svg width="542px" height="331px" viewBox="0 0 542 331" version="1.1" xmlns="http://www.w3.org/2000/svg" xmlns:xlink="http://www.w3.org/1999/xlink">
    <!-- Generator: Sketch 50.2 (55047) - http://www.bohemiancoding.com/sketch -->
    <title>dl-back</title>
    <desc>Created with Sketch.</desc>
    <defs>
        <rect id="path-1" x="0" y="0" width="37" height="54"></rect>
    </defs>
    <g id="dl-back" stroke="none" stroke-width="1" fill="none" fill-rule="evenodd">
        <rect id="Rectangle" stroke="#A9AEB1" fill="#F0F0F0" x="2.5" y="2.5" width="536" height="325" rx="12"></rect>
        <rect id="Rectangle-3-Copy-2" fill="#71767A" x="29" y="138" width="85" height="7"></rect>
        <rect id="Rectangle-3-Copy-6" fill="#71767A" x="263" y="138" width="123" height="7"></rect>
        <rect id="Rectangle-3-Copy-3" fill="#71767A" x="29" y="151" width="130" height="14"></rect>
        <rect id="Rectangle-3-Copy-7" fill="#71767A" x="263" y="151" width="137" height="14"></rect>
        <g id="Group" style="mix-blend-mode: hard-light;" transform="translate(29.000000, 253.000000)">
            <mask id="mask-2" fill="white">
                <use xlink:href="#path-1"></use>
            </mask>
            <rect stroke="#A9AEB1" x="0.5" y="0.5" width="36" height="53"></rect>
            <rect id="Rectangle-2" stroke="#A9AEB1" fill="#FFFFFF" mask="url(#mask-2)" x="0.5" y="0.5" width="36" height="53"></rect>
            <ellipse id="Oval" fill="#565C65" mask="url(#mask-2)" cx="19" cy="23" rx="15" ry="18"></ellipse>
            <ellipse id="Oval-2" fill="#565C65" mask="url(#mask-2)" cx="19" cy="55.5" rx="38" ry="16.5"></ellipse>
        </g>
        <rect id="Rectangle-4" fill="#FFFFFF" x="30" y="17" width="491" height="91"></rect>
        <rect id="Rectangle-5" fill="#212121" x="114" y="23" width="3" height="76"></rect>
        <rect id="Rectangle-5-Copy-11" fill="#212121" x="40" y="23" width="3" height="76"></rect>
        <rect id="Rectangle-5-Copy" fill="#212121" x="118" y="23" width="10" height="76"></rect>
        <rect id="Rectangle-5-Copy-12" fill="#212121" x="44" y="23" width="10" height="76"></rect>
        <rect id="Rectangle-5-Copy-10" fill="#212121" x="178" y="23" width="10" height="76"></rect>
        <rect id="Rectangle-5-Copy-13" fill="#212121" x="104" y="23" width="10" height="76"></rect>
        <rect id="Rectangle-5-Copy-2" fill="#212121" x="129" y="23" width="5" height="76"></rect>
        <rect id="Rectangle-5-Copy-14" fill="#212121" x="55" y="23" width="5" height="76"></rect>
        <rect id="Rectangle-5-Copy-8" fill="#212121" x="168" y="23" width="5" height="76"></rect>
        <rect id="Rectangle-5-Copy-15" fill="#212121" x="94" y="23" width="5" height="76"></rect>
        <rect id="Rectangle-5-Copy-3" fill="#212121" x="135" y="23" width="11" height="76"></rect>
        <rect id="Rectangle-5-Copy-16" fill="#212121" x="61" y="23" width="11" height="76"></rect>
        <rect id="Rectangle-5-Copy-7" fill="#212121" x="156" y="23" width="11" height="76"></rect>
        <rect id="Rectangle-5-Copy-17" fill="#212121" x="82" y="23" width="11" height="76"></rect>
        <rect id="Rectangle-5-Copy-4" fill="#212121" x="147" y="23" width="3" height="76"></rect>
        <rect id="Rectangle-5-Copy-18" fill="#212121" x="73" y="23" width="3" height="76"></rect>
        <rect id="Rectangle-5-Copy-9" fill="#212121" x="174" y="23" width="3" height="76"></rect>
        <rect id="Rectangle-5-Copy-19" fill="#212121" x="100" y="23" width="3" height="76"></rect>
        <rect id="Rectangle-5-Copy-5" fill="#212121" x="151" y="23" width="2" height="76"></rect>
        <rect id="Rectangle-5-Copy-20" fill="#212121" x="77" y="23" width="2" height="76"></rect>
        <rect id="Rectangle-5-Copy-6" fill="#212121" x="154" y="23" width="1" height="76"></rect>
        <rect id="Rectangle-5-Copy-21" fill="#212121" x="80" y="23" width="1" height="76"></rect>
        <path d="M243.173218,92.5225187 C265.603335,83.4817535 293.256345,72.9680635 307.621601,53.0302733 C311.776378,47.2637858 323.610045,30.3762756 317.616211,34.1957652 C307.086905,40.9054226 301.498427,53.28369 292.94737,62.3812282 C285.954025,69.8215034 261.855093,88.2753801 271.018897,83.7710194 C291.256434,73.8234949 323.270266,39.2942203 339.442472,24.2039177 C347.659079,16.536993 323.145025,39.696024 315.403474,47.8423581 C310.471377,53.0323401 305.610267,58.3457377 301.455772,64.1768325 C297.822708,69.276067 294.605789,74.7326078 292.143492,80.4892072 C290.793824,83.6445911 287.429027,92.6735481 290.157277,90.5915534 C356.208102,40.1865436 239.0413,97.4906282 349.138735,28.2619835 C357.566002,22.962966 337.19846,44.2573211 332.273867,52.9087247 C330.409326,56.1843042 328.702864,59.9577064 328.956143,63.7182628 C329.049462,65.1038164 332.503036,63.1999789 333.052883,64.4751791 C333.811692,66.2350026 332.515292,68.330777 331.690986,70.0608898 C328.079609,77.6407141 326.125782,86.7392488 319.809611,92.2711341 C314.893418,96.5768775 324.136046,79.8950276 327.108052,74.0747561 C330.263881,67.8944917 335.650206,62.8929911 338.122012,56.4087719 C338.80778,54.6098163 334.304865,57.5610215 332.900947,58.8784185 C327.883401,63.5867443 323.103057,68.635297 319.116231,74.2432666 C315.377996,79.5015613 310.448443,84.8276074 309.884062,91.2545458 C309.655292,93.8596894 315.29276,91.5188541 317.690797,90.4755298 C331.489163,84.4722163 344.108983,75.9053676 358.069795,70.2901746 C362.622223,68.4591379 376.963728,70.7288202 372.663915,68.3647343 C366.233439,64.8291858 354.889312,72.3242226 350.749254,66.2652585 C347.167344,61.0231421 377.088123,66.8439699 380.318714,68.0083759 C380.759747,68.1673381 380.975076,69.2981628 380.517612,69.4006599 L378.832506,69.9614409 C374.828485,70.8585607 363.344837,70.2378128 366.78262,72.4780495 C371.434238,75.5092842 378.209841,71.0732946 383.432016,72.9587189 C388.781738,74.8901934 379.733003,81.5192227 385.24972,77.0002099" id="Path-2" stroke="#979797"></path>
        <path d="M416.692133,65.571879 C416.692133,52.0238273 421.477065,28.4345988 398.21122,34.3145513 C396.193409,34.8245107 394.757827,36.9190628 393.86862,38.8007996 C386.689945,53.9922918 378.823276,82.5288469 377.824205,97.320926 C377.703514,99.107855 381.497521,97.8855093 383.197206,97.320926 C387.420411,95.9181059 391.934388,94.5288793 395.230517,91.53908 C399.807327,87.3876228 402.728896,81.7023476 406.114642,76.5333528 C408.346744,73.1256172 395.034669,84.4631508 398.697415,86.246191 C404.753145,89.1941456 411.878248,81.8389572 418.570611,82.5969705 C421.359439,82.9128482 421.410112,87.8384917 423.915987,89.1025831 C426.486069,90.3990634 429.723082,90.2576484 432.534888,89.6412644 C434.354965,89.2422801 435.822115,87.7072898 436.971412,86.240666 C437.863457,85.1023223 438.130125,83.5659889 438.407895,82.1466881 C438.615704,81.0848654 439.2377,79.5951053 438.407895,78.900788 C434.642113,75.7498672 400.12517,81.2519853 442.507398,81.0196011 C445.116104,81.0052974 447.636356,79.858183 450.245071,79.8455521 C453.01516,79.83214 455.843757,80.1000679 458.482752,80.942252 C460.226579,81.4987608 461.796526,82.6394024 463.082261,83.9422925 C463.360855,84.2246031 462.774821,84.7584218 462.416506,84.9284936 C448.83248,91.3760718 449.239089,86.1394786 442.557122,74.6824991 C442.310322,74.2593326 441.535191,74.4836427 441.087489,74.6824991 L427.943666,83.7599696 C424.705045,85.1984749 420.86292,85.9978946 417.410374,85.1992155 C408.441247,83.1243829 396.432233,65.1971525 414.1258,64.0635713 C442.810838,62.2257949 471.605396,63.0985491 500.345195,62.616038" id="Path-3" stroke="#979797"></path>
    </g>
</svg>