<?xml version="1.0" encoding="UTF-8"?>
<svg width="542px" height="331px" viewBox="0 0 542 331" version="1.1" xmlns="http://www.w3.org/2000/svg" xmlns:xlink="http://www.w3.org/1999/xlink">
    <!-- Generator: Sketch 50.2 (55047) - http://www.bohemiancoding.com/sketch -->
    <title>dl</title>
    <desc>Created with Sketch.</desc>
    <defs>
        <rect id="path-1" x="0" y="0" width="149" height="219"></rect>
        <rect id="path-3" x="0" y="0" width="37" height="54"></rect>
    </defs>
    <g id="dl" stroke="none" stroke-width="1" fill="none" fill-rule="evenodd">
        <rect id="Rectangle" stroke="#A9AEB1" fill="#F0F0F0" x="2.5" y="2.5" width="536" height="325" rx="12"></rect>
        <rect id="Rectangle-3" fill="#71767A" x="194" y="80" width="101" height="7"></rect>
        <rect id="Rectangle-3-Copy-2" fill="#71767A" x="194" y="138" width="85" height="7"></rect>
        <rect id="Rectangle-3-Copy-4" fill="#71767A" x="425" y="80" width="45" height="7"></rect>
        <rect id="Rectangle-3-Copy-6" fill="#71767A" x="194" y="214" width="123" height="7"></rect>
        <rect id="Rectangle-3-Copy" fill="#71767A" x="194" y="93" width="177" height="28"></rect>
        <rect id="Rectangle-3-Copy-3" fill="#71767A" x="194" y="151" width="130" height="14"></rect>
        <rect id="Rectangle-3-Copy-5" fill="#71767A" x="425" y="93" width="61" height="28"></rect>
        <rect id="Rectangle-3-Copy-7" fill="#71767A" x="194" y="227" width="137" height="14"></rect>
        <rect id="Rectangle-3-Copy-8" fill="#71767A" x="194" y="258" width="43" height="22"></rect>
        <rect id="Rectangle-3-Copy-9" fill="#71767A" x="241" y="258" width="43" height="22"></rect>
        <rect id="Rectangle-3-Copy-10" fill="#71767A" x="288" y="258" width="43" height="22"></rect>
        <rect id="Rectangle-3-Copy-11" fill="#71767A" x="335" y="258" width="43" height="22"></rect>
        <path d="M29.156,54 L29.156,35.744 L34.308,35.744 C35.708007,35.744 36.9679944,35.9213316 38.088,36.276 C39.2080056,36.6306684 40.1693293,37.176663 40.972,37.914 C41.7746707,38.651337 42.3906645,39.5893276 42.82,40.728 C43.2493355,41.8666724 43.464,43.2199922 43.464,44.788 C43.464,46.3560078 43.2493355,47.7186609 42.82,48.876 C42.3906645,50.0333391 41.7840039,50.9899962 41,51.746 C40.2159961,52.5020038 39.2780055,53.0666648 38.186,53.44 C37.0939945,53.8133352 35.8760067,54 34.532,54 L29.156,54 Z M33.272,50.668 L34.056,50.668 C34.8400039,50.668 35.5493302,50.5653344 36.184,50.36 C36.8186698,50.1546656 37.3599978,49.8233356 37.808,49.366 C38.2560022,48.9086644 38.6059987,48.3066704 38.858,47.56 C39.1100013,46.8133296 39.236,45.8893388 39.236,44.788 C39.236,43.7053279 39.1100013,42.795337 38.858,42.058 C38.6059987,41.320663 38.2560022,40.7326689 37.808,40.294 C37.3599978,39.8553311 36.8186698,39.5426676 36.184,39.356 C35.5493302,39.1693324 34.8400039,39.076 34.056,39.076 L33.272,39.076 L33.272,50.668 Z M46.936,54 L46.936,35.744 L53.516,35.744 C54.4866715,35.744 55.3966624,35.8373324 56.246,36.024 C57.0953376,36.2106676 57.8373302,36.5233311 58.472,36.962 C59.1066698,37.4006689 59.6106648,37.9839964 59.984,38.712 C60.3573352,39.4400036 60.544,40.3453279 60.544,41.428 C60.544,42.7720067 60.2500029,43.8779957 59.662,44.746 C59.0739971,45.6140043 58.2853383,46.2626645 57.296,46.692 L61.44,54 L56.82,54 L53.32,47.42 L51.052,47.42 L51.052,54 L46.936,54 Z M51.052,44.144 L53.18,44.144 C54.2626721,44.144 55.0886638,43.9153356 55.658,43.458 C56.2273362,43.0006644 56.512,42.3240045 56.512,41.428 C56.512,40.5319955 56.2273362,39.9066684 55.658,39.552 C55.0886638,39.1973316 54.2626721,39.02 53.18,39.02 L51.052,39.02 L51.052,44.144 Z M64.1,54 L64.1,35.744 L68.216,35.744 L68.216,54 L64.1,54 Z M75.692,54 L70.176,35.744 L74.544,35.744 L76.728,44.256 C77.0080014,45.264005 77.2553323,46.2393286 77.47,47.182 C77.6846677,48.1246714 77.9319986,49.099995 78.212,50.108 L78.324,50.108 C78.5853346,49.099995 78.8279989,48.1246714 79.052,47.182 C79.2760011,46.2393286 79.5186654,45.264005 79.78,44.256 L81.936,35.744 L86.136,35.744 L80.648,54 L75.692,54 Z M88.096,54 L88.096,35.744 L99.52,35.744 L99.52,39.216 L92.212,39.216 L92.212,42.884 L98.428,42.884 L98.428,46.328 L92.212,46.328 L92.212,50.528 L99.8,50.528 L99.8,54 L88.096,54 Z M103.44,54 L103.44,35.744 L110.02,35.744 C110.990672,35.744 111.900662,35.8373324 112.75,36.024 C113.599338,36.2106676 114.34133,36.5233311 114.976,36.962 C115.61067,37.4006689 116.114665,37.9839964 116.488,38.712 C116.861335,39.4400036 117.048,40.3453279 117.048,41.428 C117.048,42.7720067 116.754003,43.8779957 116.166,44.746 C115.577997,45.6140043 114.789338,46.2626645 113.8,46.692 L117.944,54 L113.324,54 L109.824,47.42 L107.556,47.42 L107.556,54 L103.44,54 Z M107.556,44.144 L109.684,44.144 C110.766672,44.144 111.592664,43.9153356 112.162,43.458 C112.731336,43.0006644 113.016,42.3240045 113.016,41.428 C113.016,40.5319955 112.731336,39.9066684 112.162,39.552 C111.592664,39.1973316 110.766672,39.02 109.684,39.02 L107.556,39.02 L107.556,44.144 Z M121.332,44.144 L120.436,42.352 C121.276004,41.9226645 121.905998,41.4326694 122.326,40.882 C122.746002,40.3313306 122.956,39.6360042 122.956,38.796 C122.9,38.8146668 122.816001,38.824 122.704,38.824 C122.106664,38.824 121.598002,38.6420018 121.178,38.278 C120.757998,37.9139982 120.548,37.4146698 120.548,36.78 C120.548,36.0706631 120.748665,35.5106687 121.15,35.1 C121.551335,34.6893313 122.06933,34.484 122.704,34.484 C123.562671,34.484 124.215998,34.8013302 124.664,35.436 C125.112002,36.0706698 125.336,36.9759941 125.336,38.152 C125.336,39.47734 125.00467,40.643995 124.342,41.652 C123.67933,42.660005 122.676007,43.4906634 121.332,44.144 Z M134.576,54.336 C133.381327,54.336 132.191339,54.1166689 131.006,53.678 C129.820661,53.2393311 128.761338,52.5813377 127.828,51.704 L130.18,48.876 C130.833337,49.4360028 131.556663,49.8933316 132.35,50.248 C133.143337,50.6026684 133.922663,50.78 134.688,50.78 C135.546671,50.78 136.185998,50.6213349 136.606,50.304 C137.026002,49.9866651 137.236,49.557336 137.236,49.016 C137.236,48.7359986 137.175334,48.4933344 137.054,48.288 C136.932666,48.0826656 136.755335,47.9006675 136.522,47.742 C136.288666,47.5833325 136.008668,47.4340007 135.682,47.294 L134.604,46.832 L132.224,45.824 C131.757331,45.6373324 131.304669,45.3946682 130.866,45.096 C130.427331,44.7973318 130.035335,44.4473353 129.69,44.046 C129.344665,43.6446647 129.069334,43.1780027 128.864,42.646 C128.658666,42.1139973 128.556,41.5120034 128.556,40.84 C128.556,40.0933296 128.714665,39.38867 129.032,38.726 C129.349335,38.06333 129.79733,37.4846691 130.376,36.99 C130.95467,36.4953309 131.640663,36.1080014 132.434,35.828 C133.227337,35.5479986 134.099995,35.408 135.052,35.408 C136.116005,35.408 137.165995,35.6133313 138.202,36.024 C139.238005,36.4346687 140.147996,37.0319961 140.932,37.816 L138.832,40.42 C138.234664,39.953331 137.637336,39.5940013 137.04,39.342 C136.442664,39.0899987 135.780004,38.964 135.052,38.964 C134.342663,38.964 133.778002,39.1086652 133.358,39.398 C132.937998,39.6873348 132.728,40.0933307 132.728,40.616 C132.728,40.8960014 132.797999,41.133999 132.938,41.33 C133.078001,41.526001 133.273999,41.7033325 133.526,41.862 C133.778001,42.0206675 134.071998,42.1699993 134.408,42.31 C134.744002,42.4500007 135.107998,42.6039992 135.5,42.772 L137.852,43.724 C138.972006,44.1720022 139.853997,44.7879961 140.498,45.572 C141.142003,46.3560039 141.464,47.3919936 141.464,48.68 C141.464,49.4453372 141.310002,50.1686633 141.002,50.85 C140.693998,51.5313367 140.246003,52.1286641 139.658,52.642 C139.069997,53.1553359 138.346671,53.5659985 137.488,53.874 C136.629329,54.1820015 135.658672,54.336 134.576,54.336 Z M150.172,54 L150.172,35.744 L154.288,35.744 L154.288,50.528 L161.512,50.528 L161.512,54 L150.172,54 Z M164.676,54 L164.676,35.744 L168.792,35.744 L168.792,54 L164.676,54 Z M180.72,54.336 C179.562661,54.336 178.470672,54.1353353 177.444,53.734 C176.417328,53.3326647 175.516671,52.7400039 174.742,51.956 C173.967329,51.1719961 173.356002,50.1966725 172.908,49.03 C172.459998,47.8633275 172.236,46.5146743 172.236,44.984 C172.236,43.4719924 172.469331,42.1233393 172.936,40.938 C173.402669,39.7526607 174.027996,38.7493374 174.812,37.928 C175.596004,37.1066626 176.510661,36.4813355 177.556,36.052 C178.601339,35.6226645 179.702661,35.408 180.86,35.408 C182.036006,35.408 183.090662,35.6459976 184.024,36.122 C184.957338,36.5980024 185.731997,37.1533302 186.348,37.788 L184.164,40.42 C183.697331,39.9906645 183.207336,39.640668 182.694,39.37 C182.180664,39.099332 181.597337,38.964 180.944,38.964 C180.327997,38.964 179.744669,39.099332 179.194,39.37 C178.643331,39.640668 178.167335,40.0279975 177.766,40.532 C177.364665,41.0360025 177.047334,41.6519964 176.814,42.38 C176.580665,43.1080036 176.464,43.9293288 176.464,44.844 C176.464,46.7293428 176.865329,48.1899948 177.668,49.226 C178.470671,50.2620052 179.543993,50.78 180.888,50.78 C181.63467,50.78 182.301997,50.6166683 182.89,50.29 C183.478003,49.9633317 183.995998,49.5573358 184.444,49.072 L186.628,51.648 C185.097326,53.440009 183.128012,54.336 180.72,54.336 Z M189.4,54 L189.4,35.744 L200.824,35.744 L200.824,39.216 L193.516,39.216 L193.516,42.884 L199.732,42.884 L199.732,46.328 L193.516,46.328 L193.516,50.528 L201.104,50.528 L201.104,54 L189.4,54 Z M204.744,54 L204.744,35.744 L208.972,35.744 L213.732,44.816 L215.524,48.848 L215.636,48.848 C215.542666,47.8773285 215.435334,46.7946726 215.314,45.6 C215.192666,44.4053274 215.132,43.2666721 215.132,42.184 L215.132,35.744 L219.052,35.744 L219.052,54 L214.824,54 L210.064,44.9 L208.272,40.924 L208.16,40.924 C208.253334,41.932005 208.360666,43.0146609 208.482,44.172 C208.603334,45.3293391 208.664,46.4493279 208.664,47.532 L208.664,54 L204.744,54 Z M228.936,54.336 C227.741327,54.336 226.551339,54.1166689 225.366,53.678 C224.180661,53.2393311 223.121338,52.5813377 222.188,51.704 L224.54,48.876 C225.193337,49.4360028 225.916663,49.8933316 226.71,50.248 C227.503337,50.6026684 228.282663,50.78 229.048,50.78 C229.906671,50.78 230.545998,50.6213349 230.966,50.304 C231.386002,49.9866651 231.596,49.557336 231.596,49.016 C231.596,48.7359986 231.535334,48.4933344 231.414,48.288 C231.292666,48.0826656 231.115334,47.9006675 230.882,47.742 C230.648666,47.5833325 230.368668,47.4340007 230.042,47.294 L228.964,46.832 L226.584,45.824 C226.117331,45.6373324 225.664669,45.3946682 225.226,45.096 C224.787331,44.7973318 224.395335,44.4473353 224.05,44.046 C223.704665,43.6446647 223.429334,43.1780027 223.224,42.646 C223.018666,42.1139973 222.916,41.5120034 222.916,40.84 C222.916,40.0933296 223.074665,39.38867 223.392,38.726 C223.709335,38.06333 224.15733,37.4846691 224.736,36.99 C225.31467,36.4953309 226.000663,36.1080014 226.794,35.828 C227.587337,35.5479986 228.459995,35.408 229.412,35.408 C230.476005,35.408 231.525995,35.6133313 232.562,36.024 C233.598005,36.4346687 234.507996,37.0319961 235.292,37.816 L233.192,40.42 C232.594664,39.953331 231.997336,39.5940013 231.4,39.342 C230.802664,39.0899987 230.140004,38.964 229.412,38.964 C228.702663,38.964 228.138002,39.1086652 227.718,39.398 C227.297998,39.6873348 227.088,40.0933307 227.088,40.616 C227.088,40.8960014 227.157999,41.133999 227.298,41.33 C227.438001,41.526001 227.633999,41.7033325 227.886,41.862 C228.138001,42.0206675 228.431998,42.1699993 228.768,42.31 C229.104002,42.4500007 229.467998,42.6039992 229.86,42.772 L232.212,43.724 C233.332006,44.1720022 234.213997,44.7879961 234.858,45.572 C235.502003,46.3560039 235.824,47.3919936 235.824,48.68 C235.824,49.4453372 235.670002,50.1686633 235.362,50.85 C235.053998,51.5313367 234.606003,52.1286641 234.018,52.642 C233.429997,53.1553359 232.706671,53.5659985 231.848,53.874 C230.989329,54.1820015 230.018672,54.336 228.936,54.336 Z M238.932,54 L238.932,35.744 L250.356,35.744 L250.356,39.216 L243.048,39.216 L243.048,42.884 L249.264,42.884 L249.264,46.328 L243.048,46.328 L243.048,50.528 L250.636,50.528 L250.636,54 L238.932,54 Z" id="DRIVER’S-LICENSE" fill="#205493"></path>
        <g id="Group" transform="translate(27.000000, 80.000000)">
            <mask id="mask-2" fill="white">
                <use xlink:href="#path-1"></use>
            </mask>
            <rect stroke="#A9AEB1" x="0.5" y="0.5" width="148" height="218"></rect>
            <rect id="Rectangle-2" stroke="#A9AEB1" fill="#FFFFFF" mask="url(#mask-2)" x="0.5" y="0.5" width="148" height="218"></rect>
            <ellipse id="Oval" fill="#565C65" mask="url(#mask-2)" cx="76.5" cy="91" rx="59.5" ry="72"></ellipse>
            <ellipse id="Oval-2" fill="#565C65" mask="url(#mask-2)" cx="75.5" cy="224.5" rx="153.5" ry="67.5"></ellipse>
        </g>
        <g id="Group" style="mix-blend-mode: hard-light;" transform="translate(467.000000, 253.000000)">
            <mask id="mask-4" fill="white">
                <use xlink:href="#path-3"></use>
            </mask>
            <rect stroke="#A9AEB1" x="0.5" y="0.5" width="36" height="53"></rect>
            <rect id="Rectangle-2" stroke="#A9AEB1" fill="#FFFFFF" mask="url(#mask-4)" x="0.5" y="0.5" width="36" height="53"></rect>
            <ellipse id="Oval" fill="#565C65" mask="url(#mask-4)" cx="19" cy="23" rx="15" ry="18"></ellipse>
            <ellipse id="Oval-2" fill="#565C65" mask="url(#mask-4)" cx="19" cy="55.5" rx="38" ry="16.5"></ellipse>
        </g>
    </g>
</svg>